<svg viewBox="0 0 74 69.375" xmlns="http://www.w3.org/2000/svg" xmlns:xlink="http://www.w3.org/1999/xlink" width="74.000000" height="69.375000" fill="none" customFrame="#000000">
	<path id="Vector" d="M70.5312 0L3.46875 0C1.55315 0 0 1.55315 0 3.46875L0 49.7188C0 51.6344 1.55315 53.1875 3.46875 53.1875L27.75 53.1875L27.75 58.9688C27.75 60.8844 26.1969 62.4375 24.2812 62.4375L18.5 62.4375L18.5 69.375L55.5 69.375L55.5 62.4375L49.7188 62.4375C47.8031 62.4375 46.25 60.8844 46.25 58.9688L46.25 53.1875L70.5312 53.1875C72.4469 53.1875 74 51.6344 74 49.7188L74 3.46875C74 1.55315 72.4469 0 70.5312 0ZM53.1875 64.75L53.1875 67.0625L20.8125 67.0625L20.8125 64.75L53.1875 64.75ZM37 60.1736C38.9156 60.1736 40.4688 58.6204 40.4688 56.7048L40.4688 53.1875L43.9375 53.1875L43.9375 58.9688C43.942 60.2238 44.3587 61.4427 45.1237 62.4375L28.8763 62.4375C29.6413 61.4427 30.058 60.2238 30.0625 58.9688L30.0625 53.1875L33.5312 53.1875L33.5312 56.7048C33.5312 58.6204 35.0844 60.1736 37 60.1736ZM35.8438 56.7048L35.8438 53.1875L38.1562 53.1875L38.1562 56.7048C38.1562 57.3433 37.6385 57.8611 37 57.8611C36.3615 57.8611 35.8438 57.3433 35.8438 56.7048ZM71.6875 49.7188C71.6875 50.3573 71.1698 50.875 70.5312 50.875L3.46875 50.875C2.83022 50.875 2.3125 50.3573 2.3125 49.7188L2.3125 39.3125L25.669 39.3125C26.6265 44.0194 30.3956 47.6428 35.1369 48.4135C39.8776 49.1847 44.6009 46.9422 47.0003 42.7812L52.4349 42.7812C54.3725 46.1501 57.8774 48.3163 61.7572 48.5433C65.6369 48.7703 69.3699 47.0274 71.6875 43.9076L71.6875 49.7188ZM62.4375 46.25C58.923 46.2585 55.7112 44.2633 54.1608 41.1095L53.8407 40.4688L45.5968 40.4688L45.2767 41.1095C43.2487 45.1982 38.5419 47.1974 34.1918 45.817C29.8412 44.436 27.1482 40.0894 27.8494 35.579C28.55 31.0691 32.436 27.7449 37 27.75L62.4375 27.75C67.5463 27.75 71.6875 31.8912 71.6875 37C71.6875 42.1088 67.5463 46.25 62.4375 46.25ZM71.6875 30.0924C69.5128 27.1668 66.083 25.4409 62.4375 25.4375L37 25.4375C30.6169 25.4443 25.4443 30.6169 25.4375 37L2.3125 37L2.3125 3.46875C2.3125 2.83022 2.83022 2.3125 3.46875 2.3125L70.5312 2.3125C71.1698 2.3125 71.6875 2.83022 71.6875 3.46875L71.6875 30.0924Z" fill="rgb(255,180,0)" fill-rule="nonzero" />
</svg>
