<svg viewBox="0 0 71.4253 78" xmlns="http://www.w3.org/2000/svg" xmlns:xlink="http://www.w3.org/1999/xlink" width="71.425293" height="78.000000" fill="none" customFrame="#000000">
	<path id="Vector" d="M52.0675 72.9677L71.4254 72.9677L66.456 58.0584C65.1564 54.1597 61.8402 51.2686 57.8005 50.5113L44.5191 48.0203L44.5191 44.9469C47.7008 42.6509 49.9464 39.1535 50.5981 35.1201C53.5671 34.6182 55.8417 32.0454 55.8417 28.9355L55.8417 20.129C55.8417 9.03039 46.8113 0 35.7127 0C24.614 0 15.5836 9.03039 15.5836 20.129L15.5836 28.9355C15.5836 32.0416 17.8469 34.6295 20.8109 35.1365C21.4651 39.1698 23.7233 42.671 26.9062 44.9657L26.9062 48.0216L13.6236 50.5126C9.5852 51.2699 6.26768 54.1609 4.9681 58.0597L0 72.9677L19.3578 72.9677L19.3578 70.4516L15.9372 70.4516L18.062 61.9496L15.6214 61.3407L13.343 70.4516L3.48987 70.4516L7.3559 58.8548C8.36613 55.8228 10.9464 53.5734 14.0878 52.9834L22.1017 51.4813L24.1511 60.7004C22.8125 61.2816 21.874 62.6126 21.874 64.1613L21.874 74.2258C21.874 76.3066 23.5673 78 25.6482 78L45.7772 78C47.858 78 49.5514 76.3066 49.5514 74.2258L49.5514 64.1613C49.5514 62.6126 48.6129 61.2816 47.2756 60.7004L49.3249 51.4813L57.3388 52.9834C60.4802 53.5734 63.0592 55.8228 64.0707 58.8548L67.9355 70.4516L58.0823 70.4516L55.804 61.3407L53.3633 61.9496L55.4882 70.4516L52.0675 70.4516L52.0675 72.9677ZM46.8503 51.017L45.1129 58.8346L44.2436 55.3548L38.7497 55.3548L43.6813 50.4232L46.8503 51.017ZM42.9076 60.3871L28.5178 60.3871L29.1468 57.871L42.2785 57.871L42.9076 60.3871ZM35.7127 54.834L29.4224 48.5437L29.4224 46.4226C31.3397 47.3057 33.467 47.8064 35.7127 47.8064C37.9596 47.8064 40.0857 47.2994 42.003 46.4163L42.003 48.5437L35.7127 54.834ZM50.8095 32.4782L50.8095 25.394C52.2701 25.9149 53.3256 27.2987 53.3256 28.9367C53.3256 30.5747 52.2701 31.9574 50.8095 32.4782ZM20.6159 32.4945C19.1515 31.975 18.0998 30.576 18.0998 28.9355C18.0998 27.295 19.1515 25.896 20.6159 25.3764L20.6159 32.4945ZM18.0998 23.9359L18.0998 20.129C18.0998 10.4168 26.0004 2.51613 35.7127 2.51613C45.4249 2.51613 53.3256 10.4168 53.3256 20.129L53.3256 23.9359C52.5808 23.3723 51.7203 22.9559 50.7692 22.7685C50.5717 21.2827 49.3111 20.129 47.7725 20.129C46.9736 20.129 46.1911 20.4536 45.5621 21.0826C43.4372 23.2075 40.7449 24.5625 37.8288 25.0028L37.9093 24.8417C38.1181 24.4215 38.2288 23.9523 38.2288 23.483L38.2288 23.166C38.2288 21.4915 36.8663 20.129 35.1918 20.129C34.393 20.129 33.6105 20.4536 33.0443 21.0185C30.3936 23.668 26.8773 25.1374 23.132 25.1613L23.132 22.6452L21.874 22.6452C20.4524 22.6452 19.154 23.1371 18.0998 23.9359ZM23.132 32.7097L23.132 27.6774C27.5491 27.6535 31.6982 25.9224 34.822 22.7986C35.1252 22.4942 35.7127 22.742 35.7127 23.166L35.7127 23.483C35.7127 23.5635 35.6938 23.6441 35.6573 23.717L33.6771 27.6774L35.7127 27.6774C40.1058 27.6774 44.2348 25.9677 47.4026 22.7986C47.7071 22.4942 48.2933 22.742 48.2933 23.166L48.2933 32.7097C48.2933 39.6466 42.6497 45.2903 35.7127 45.2903C28.7757 45.2903 23.132 39.6466 23.132 32.7097ZM27.7441 50.4232L32.6757 55.3548L27.1817 55.3548L26.3124 58.8346L24.575 51.017L27.7441 50.4232ZM25.6482 75.4839C24.955 75.4839 24.3901 74.9203 24.3901 74.2258L24.3901 64.1613C24.3901 63.4668 24.955 62.9032 25.6482 62.9032L29.562 62.9032C27.9253 64.5035 26.9062 66.7303 26.9062 69.1936C26.9062 71.6568 27.9253 73.8836 29.562 75.4839L25.6482 75.4839ZM35.7127 75.4839C32.2442 75.4839 29.4224 72.662 29.4224 69.1936C29.4224 65.7251 32.2442 62.9032 35.7127 62.9032C39.1812 62.9032 42.003 65.7251 42.003 69.1936C42.003 72.662 39.1812 75.4839 35.7127 75.4839ZM47.0353 74.2258C47.0353 74.9203 46.4704 75.4839 45.7772 75.4839L41.8634 75.4839C43.5001 73.8836 44.5191 71.6568 44.5191 69.1936C44.5191 66.7303 43.5001 64.5035 41.8634 62.9032L45.7772 62.9032C46.4704 62.9032 47.0353 63.4668 47.0353 64.1613L47.0353 74.2258Z" fill="rgb(255,180,0)" fill-rule="nonzero" />
</svg>
