<svg viewBox="0 0 65.875 53.125" xmlns="http://www.w3.org/2000/svg" xmlns:xlink="http://www.w3.org/1999/xlink" width="65.875000" height="53.125000" fill="none" customFrame="#000000">
	<path id="Vector" d="M62.1562 0L3.71875 0C2.73281 0.00108977 1.78757 0.393236 1.0904 1.0904C0.393236 1.78757 0.00108977 2.73281 0 3.71875L0 40.9062C0.00108977 41.8922 0.393236 42.8374 1.0904 43.5346C1.78757 44.2318 2.73281 44.6239 3.71875 44.625L24.9927 44.625L23.7177 47.8125L18.0625 47.8125C17.7807 47.8125 17.5105 47.9244 17.3112 48.1237C17.1119 48.323 17 48.5932 17 48.875L17 51L10.625 51C10.3432 51 10.073 51.1119 9.8737 51.3112C9.67444 51.5105 9.5625 51.7807 9.5625 52.0625C9.5625 52.3443 9.67444 52.6145 9.8737 52.8138C10.073 53.0131 10.3432 53.125 10.625 53.125L55.25 53.125C55.5318 53.125 55.802 53.0131 56.0013 52.8138C56.2006 52.6145 56.3125 52.3443 56.3125 52.0625C56.3125 51.7807 56.2006 51.5105 56.0013 51.3112C55.802 51.1119 55.5318 51 55.25 51L48.875 51L48.875 48.875C48.875 48.5932 48.7631 48.323 48.5638 48.1237C48.3645 47.9244 48.0943 47.8125 47.8125 47.8125L42.1573 47.8125L40.8823 44.625L62.1562 44.625C63.1422 44.6239 64.0874 44.2318 64.7846 43.5346C65.4818 42.8374 65.8739 41.8922 65.875 40.9062L65.875 3.71875C65.8739 2.73281 65.4818 1.78757 64.7846 1.0904C64.0874 0.393236 63.1422 0.00108977 62.1562 0ZM46.75 49.9375L46.75 51L19.125 51L19.125 49.9375L46.75 49.9375ZM26.0073 47.8125L27.2823 44.625L38.5927 44.625L39.8677 47.8125L26.0073 47.8125ZM63.75 40.9062C63.7496 41.3288 63.5816 41.734 63.2828 42.0328C62.984 42.3316 62.5788 42.4996 62.1562 42.5L3.71875 42.5C3.29617 42.4996 2.891 42.3316 2.59219 42.0328C2.29338 41.734 2.12535 41.3288 2.125 40.9062L2.125 38.25L63.75 38.25L63.75 40.9062ZM63.75 36.125L2.125 36.125L2.125 3.71875C2.12535 3.29617 2.29338 2.891 2.59219 2.59219C2.891 2.29338 3.29617 2.12535 3.71875 2.125L62.1562 2.125C62.5788 2.12535 62.984 2.29338 63.2828 2.59219C63.5816 2.891 63.7496 3.29617 63.75 3.71875L63.75 36.125Z" fill="rgb(255,180,0)" fill-rule="nonzero" />
</svg>
